# xmcd
#
# Track frame offsets: 
#        150
#        15280
#        33165
#        49115
#        66296
#        81554
#        95597
#        111998
#        125936
#        144366
#        163212
#        184453
#
# Disc length: 2654 seconds
#
# Revision: 3
# Processed by: cddbd v1.5.2PL0 Copyright (c) Steve Scherf et al.
# Submitted via: ExactAudioCopyFreeDBPlugin 1.0
#
DISCID=ad0a5c0c
DTITLE=Diana Ross - 1987 - Red Hot Rhythm And Blues
DYEAR=1987
DGENRE=Blues
TTITLE0=Dirty Looks
TTITLE1=Stranger In Paradise
TTITLE2=Shine
TTITLE3=Shockwaves
TTITLE4=Selfish One
TTITLE5=Mr. Lee
TTITLE6=Tell Mama
TTITLE7=There Goes My Baby
TTITLE8=Summertime
TTITLE9=Cross My Heart
TTITLE10=It's Hard For Me To Say
TTITLE11=Tell Me Again
EXTD=077774678728
EXTT0=
EXTT1=
EXTT2=
EXTT3=
EXTT4=
EXTT5=
EXTT6=
EXTT7=
EXTT8=
EXTT9=
EXTT10=
EXTT11=
PLAYORDER=
